<?xml version="1.0" standalone="no"?>
<!DOCTYPE svg PUBLIC "-//W3C//DTD SVG 20010904//EN" "http://www.w3.org/TR/2001/REC-SVG-20010904/DTD/svg10.dtd">
<svg version="1.0" xmlns="http://www.w3.org/2000/svg"
 width="512" height="512" viewBox="0 0 512.000000 512.000000"
 preserveAspectRatio="xMidYMid meet">
<rect x="0" y="0" width="512" height="512" fill="#E91E63"></rect>
<g transform="translate(0.000000,512.000000) scale(0.100000,-0.100000)" fill="#fff" stroke="none">
	<path d="M2345 4906 c-280 -147 -429 -439 -395 -777 14 -144 32 -200 75 -238 30 -26 44 -31 86 -31 44 0 55 4 84 33 45 45 51 75 34 171 -49 283 29 480 235 600 76 45 103 73 112 122 13 69 -60 154 -132 154 -18 0 -62 -16 -99 -34z"/>
	<path d="M1191 4245 c-166 -38 -221 -77 -221 -161 0 -64 23 -102 77 -126 l45 -20 94 27 c114 32 232 32 299 0 53 -26 104 -79 135 -140 28 -56 79 -95 122 -95 110 0 169 107 119 215 -57 124 -182 236 -314 283 -90 32 -256 40 -356 17z"/>
	<path d="M2362 3860 c-110 -105 -141 -130 -157 -124 -48 15 -160 15 -197 0 -47 -20 -101 -67 -129 -113 l-22 -36 -188 7 -187 7 -21 -27 c-12 -15 -21 -32 -21 -38 0 -18 198 -526 211 -542 7 -9 25 -14 45 -12 26 2 60 29 172 135 139 132 140 133 172 122 42 -15 128 -6 178 20 22 11 59 42 83 69 l44 50 185 -8 c216 -8 239 -2 240 59 0 39 -189 524 -212 544 -11 9 -29 17 -39 17 -11 0 -79 -57 -157 -130z"/>
	<path d="M2860 3761 c0 -13 81 -224 90 -234 4 -5 54 -24 110 -43 358 -120 655 -378 815 -709 69 -142 97 -241 132 -459 l8 -48 73 -19 c119 -30 181 -80 228 -183 23 -51 26 -67 22 -135 -12 -200 -177 -322 -384 -284 l-51 10 -33 -66 c-132 -270 -382 -515 -652 -640 -88 -41 -237 -90 -343 -113 -97 -21 -440 -17 -545 6 -205 44 -407 135 -562 251 -163 123 -324 315 -409 488 l-34 68 -92 -7 c-113 -8 -173 10 -244 74 -102 92 -133 232 -77 353 46 100 123 158 241 182 l61 13 13 94 c25 186 87 367 178 516 25 41 45 78 45 82 0 4 -21 62 -47 130 l-46 123 -24 -28 c-137 -164 -269 -440 -314 -661 l-13 -63 -69 -36 c-211 -111 -323 -355 -273 -594 44 -204 227 -381 425 -411 36 -6 75 -12 86 -14 12 -3 46 -45 85 -106 81 -127 264 -315 400 -411 398 -281 917 -374 1380 -247 387 107 715 342 937 673 l65 97 47 0 c58 1 161 35 234 80 153 92 248 265 249 450 0 103 -13 165 -55 250 -42 86 -151 197 -232 236 l-61 29 -26 106 c-148 596 -623 1056 -1226 1189 -99 22 -112 24 -112 11z"/>
	<path d="M2075 2356 c-64 -29 -115 -110 -115 -184 0 -54 38 -122 88 -157 82 -56 203 -35 263 48 70 97 37 232 -72 287 -44 23 -120 26 -164 6z"/>
	<path d="M2981 2348 c-28 -14 -54 -38 -73 -67 -26 -41 -29 -53 -26 -112 3 -54 9 -73 32 -103 77 -102 203 -112 292 -22 156 156 -26 403 -225 304z"/>
	<path d="M2124 1545 c-27 -70 107 -284 220 -350 144 -84 342 -92 494 -20 120 57 223 180 263 313 11 37 10 45 -4 59 -15 15 -22 13 -98 -21 -253 -116 -516 -117 -764 -2 -86 40 -103 43 -111 21z"/>
</g>
</svg>
